<mxfile host="app.diagrams.net" modified="2023-03-16T09:06:39.314Z" agent="5.0 (X11)" etag="eDci4I-RCF5SlRB_pUq1" version="21.0.6" type="github">
  <diagram name="Page-1" id="RX8tWHJNb5Enp5wSpXxo">
    <mxGraphModel dx="1313" dy="681" grid="1" gridSize="10" guides="1" tooltips="1" connect="1" arrows="1" fold="1" page="1" pageScale="1" pageWidth="850" pageHeight="1100" math="0" shadow="0">
      <root>
        <mxCell id="0" />
        <mxCell id="1" parent="0" />
        <mxCell id="SMmb6kWB0ZHN64gQysmY-12" style="edgeStyle=orthogonalEdgeStyle;rounded=0;orthogonalLoop=1;jettySize=auto;html=1;exitX=1;exitY=0.5;exitDx=0;exitDy=0;entryX=0;entryY=0.5;entryDx=0;entryDy=0;fillColor=#f8cecc;strokeColor=#b85450;" edge="1" parent="1" source="SMmb6kWB0ZHN64gQysmY-1" target="SMmb6kWB0ZHN64gQysmY-10">
          <mxGeometry relative="1" as="geometry" />
        </mxCell>
        <mxCell id="SMmb6kWB0ZHN64gQysmY-67" style="edgeStyle=orthogonalEdgeStyle;rounded=0;orthogonalLoop=1;jettySize=auto;html=1;exitX=0;exitY=0.5;exitDx=0;exitDy=0;entryX=1;entryY=0.5;entryDx=0;entryDy=0;fillColor=#f8cecc;strokeColor=#b85450;" edge="1" parent="1" source="SMmb6kWB0ZHN64gQysmY-1" target="SMmb6kWB0ZHN64gQysmY-56">
          <mxGeometry relative="1" as="geometry" />
        </mxCell>
        <mxCell id="SMmb6kWB0ZHN64gQysmY-1" value="high_level" style="rounded=1;whiteSpace=wrap;html=1;fontSize=19;fillColor=#dae8fc;strokeColor=#6c8ebf;" vertex="1" parent="1">
          <mxGeometry x="365" y="80" width="120" height="60" as="geometry" />
        </mxCell>
        <mxCell id="SMmb6kWB0ZHN64gQysmY-15" style="edgeStyle=orthogonalEdgeStyle;rounded=0;orthogonalLoop=1;jettySize=auto;html=1;exitX=1;exitY=0.5;exitDx=0;exitDy=0;entryX=0;entryY=0.5;entryDx=0;entryDy=0;fillColor=#f8cecc;strokeColor=#b85450;" edge="1" parent="1" source="SMmb6kWB0ZHN64gQysmY-2" target="SMmb6kWB0ZHN64gQysmY-10">
          <mxGeometry relative="1" as="geometry" />
        </mxCell>
        <mxCell id="SMmb6kWB0ZHN64gQysmY-2" value="low_level" style="rounded=1;whiteSpace=wrap;html=1;fontSize=19;fillColor=#dae8fc;strokeColor=#6c8ebf;" vertex="1" parent="1">
          <mxGeometry x="365" y="200" width="120" height="60" as="geometry" />
        </mxCell>
        <mxCell id="SMmb6kWB0ZHN64gQysmY-16" style="edgeStyle=orthogonalEdgeStyle;rounded=0;orthogonalLoop=1;jettySize=auto;html=1;exitX=1;exitY=0.5;exitDx=0;exitDy=0;entryX=0;entryY=0.5;entryDx=0;entryDy=0;fillColor=#f8cecc;strokeColor=#b85450;" edge="1" parent="1" source="SMmb6kWB0ZHN64gQysmY-3" target="SMmb6kWB0ZHN64gQysmY-10">
          <mxGeometry relative="1" as="geometry" />
        </mxCell>
        <mxCell id="SMmb6kWB0ZHN64gQysmY-65" style="edgeStyle=orthogonalEdgeStyle;rounded=0;orthogonalLoop=1;jettySize=auto;html=1;exitX=0;exitY=0.5;exitDx=0;exitDy=0;entryX=1;entryY=0.5;entryDx=0;entryDy=0;fillColor=#f8cecc;strokeColor=#b85450;" edge="1" parent="1" source="SMmb6kWB0ZHN64gQysmY-3" target="SMmb6kWB0ZHN64gQysmY-63">
          <mxGeometry relative="1" as="geometry">
            <Array as="points">
              <mxPoint x="280" y="350" />
              <mxPoint x="280" y="350" />
            </Array>
          </mxGeometry>
        </mxCell>
        <mxCell id="SMmb6kWB0ZHN64gQysmY-3" value="top_level" style="rounded=1;whiteSpace=wrap;html=1;fontSize=19;fillColor=#dae8fc;strokeColor=#6c8ebf;" vertex="1" parent="1">
          <mxGeometry x="365" y="320" width="120" height="60" as="geometry" />
        </mxCell>
        <mxCell id="SMmb6kWB0ZHN64gQysmY-17" style="edgeStyle=orthogonalEdgeStyle;rounded=0;orthogonalLoop=1;jettySize=auto;html=1;exitX=1;exitY=0.5;exitDx=0;exitDy=0;entryX=0;entryY=0.5;entryDx=0;entryDy=0;fillColor=#f8cecc;strokeColor=#b85450;" edge="1" parent="1" source="SMmb6kWB0ZHN64gQysmY-4" target="SMmb6kWB0ZHN64gQysmY-10">
          <mxGeometry relative="1" as="geometry" />
        </mxCell>
        <mxCell id="SMmb6kWB0ZHN64gQysmY-39" style="edgeStyle=orthogonalEdgeStyle;rounded=0;orthogonalLoop=1;jettySize=auto;html=1;exitX=0;exitY=0.5;exitDx=0;exitDy=0;entryX=1;entryY=0.5;entryDx=0;entryDy=0;fillColor=#f8cecc;strokeColor=#b85450;" edge="1" parent="1" source="SMmb6kWB0ZHN64gQysmY-4" target="SMmb6kWB0ZHN64gQysmY-37">
          <mxGeometry relative="1" as="geometry" />
        </mxCell>
        <mxCell id="SMmb6kWB0ZHN64gQysmY-51" style="edgeStyle=orthogonalEdgeStyle;rounded=0;orthogonalLoop=1;jettySize=auto;html=1;exitX=0;exitY=0.25;exitDx=0;exitDy=0;entryX=0;entryY=0.5;entryDx=0;entryDy=0;fillColor=#f8cecc;strokeColor=#b85450;" edge="1" parent="1" source="SMmb6kWB0ZHN64gQysmY-4" target="SMmb6kWB0ZHN64gQysmY-49">
          <mxGeometry relative="1" as="geometry" />
        </mxCell>
        <mxCell id="SMmb6kWB0ZHN64gQysmY-4" value="BRUCE_data" style="rounded=1;whiteSpace=wrap;html=1;fontSize=18;fillColor=#e1d5e7;strokeColor=#9673a6;" vertex="1" parent="1">
          <mxGeometry x="365.5" y="440" width="120" height="60" as="geometry" />
        </mxCell>
        <mxCell id="SMmb6kWB0ZHN64gQysmY-18" style="edgeStyle=orthogonalEdgeStyle;rounded=0;orthogonalLoop=1;jettySize=auto;html=1;exitX=1;exitY=0.5;exitDx=0;exitDy=0;entryX=0;entryY=0.5;entryDx=0;entryDy=0;fillColor=#f8cecc;strokeColor=#b85450;" edge="1" parent="1" source="SMmb6kWB0ZHN64gQysmY-5" target="SMmb6kWB0ZHN64gQysmY-10">
          <mxGeometry relative="1" as="geometry" />
        </mxCell>
        <mxCell id="SMmb6kWB0ZHN64gQysmY-31" style="edgeStyle=orthogonalEdgeStyle;rounded=0;orthogonalLoop=1;jettySize=auto;html=1;exitX=0;exitY=0.5;exitDx=0;exitDy=0;entryX=1;entryY=0.5;entryDx=0;entryDy=0;fillColor=#f8cecc;strokeColor=#b85450;" edge="1" parent="1" source="SMmb6kWB0ZHN64gQysmY-5" target="SMmb6kWB0ZHN64gQysmY-24">
          <mxGeometry relative="1" as="geometry" />
        </mxCell>
        <mxCell id="SMmb6kWB0ZHN64gQysmY-5" value="run_bear" style="rounded=1;whiteSpace=wrap;html=1;fontSize=19;fillColor=#dae8fc;strokeColor=#6c8ebf;" vertex="1" parent="1">
          <mxGeometry x="365.5" y="560" width="120" height="60" as="geometry" />
        </mxCell>
        <mxCell id="SMmb6kWB0ZHN64gQysmY-19" style="edgeStyle=orthogonalEdgeStyle;rounded=0;orthogonalLoop=1;jettySize=auto;html=1;exitX=1;exitY=0.5;exitDx=0;exitDy=0;entryX=0;entryY=0.5;entryDx=0;entryDy=0;fillColor=#f8cecc;strokeColor=#b85450;" edge="1" parent="1" source="SMmb6kWB0ZHN64gQysmY-6" target="SMmb6kWB0ZHN64gQysmY-10">
          <mxGeometry relative="1" as="geometry" />
        </mxCell>
        <mxCell id="SMmb6kWB0ZHN64gQysmY-44" style="edgeStyle=orthogonalEdgeStyle;rounded=0;orthogonalLoop=1;jettySize=auto;html=1;exitX=0;exitY=0.5;exitDx=0;exitDy=0;fillColor=#f8cecc;strokeColor=#b85450;" edge="1" parent="1" source="SMmb6kWB0ZHN64gQysmY-6" target="SMmb6kWB0ZHN64gQysmY-42">
          <mxGeometry relative="1" as="geometry" />
        </mxCell>
        <mxCell id="SMmb6kWB0ZHN64gQysmY-6" value="run_dxl" style="rounded=1;whiteSpace=wrap;html=1;fontSize=19;fillColor=#dae8fc;strokeColor=#6c8ebf;" vertex="1" parent="1">
          <mxGeometry x="365.5" y="680" width="120" height="60" as="geometry" />
        </mxCell>
        <mxCell id="SMmb6kWB0ZHN64gQysmY-20" style="edgeStyle=orthogonalEdgeStyle;rounded=0;orthogonalLoop=1;jettySize=auto;html=1;exitX=1;exitY=0.5;exitDx=0;exitDy=0;entryX=0;entryY=0.5;entryDx=0;entryDy=0;fillColor=#f8cecc;strokeColor=#b85450;" edge="1" parent="1" source="SMmb6kWB0ZHN64gQysmY-7" target="SMmb6kWB0ZHN64gQysmY-10">
          <mxGeometry relative="1" as="geometry" />
        </mxCell>
        <mxCell id="SMmb6kWB0ZHN64gQysmY-54" style="edgeStyle=orthogonalEdgeStyle;rounded=0;orthogonalLoop=1;jettySize=auto;html=1;exitX=1;exitY=0.75;exitDx=0;exitDy=0;entryX=0;entryY=0.75;entryDx=0;entryDy=0;fillColor=#f8cecc;strokeColor=#b85450;" edge="1" parent="1" source="SMmb6kWB0ZHN64gQysmY-7" target="SMmb6kWB0ZHN64gQysmY-53">
          <mxGeometry relative="1" as="geometry" />
        </mxCell>
        <mxCell id="SMmb6kWB0ZHN64gQysmY-7" value="run_estim" style="rounded=1;whiteSpace=wrap;html=1;fontSize=19;fillColor=#dae8fc;strokeColor=#6c8ebf;" vertex="1" parent="1">
          <mxGeometry x="365.5" y="800" width="120" height="60" as="geometry" />
        </mxCell>
        <mxCell id="SMmb6kWB0ZHN64gQysmY-8" value="thread" style="text;html=1;align=center;verticalAlign=middle;whiteSpace=wrap;rounded=0;fontSize=23;fillColor=#dae8fc;strokeColor=#6c8ebf;" vertex="1" parent="1">
          <mxGeometry x="383" y="10" width="85" height="50" as="geometry" />
        </mxCell>
        <mxCell id="SMmb6kWB0ZHN64gQysmY-21" style="edgeStyle=orthogonalEdgeStyle;rounded=0;orthogonalLoop=1;jettySize=auto;html=1;exitX=0.5;exitY=1;exitDx=0;exitDy=0;entryX=0.5;entryY=1;entryDx=0;entryDy=0;fontColor=#000000;fillColor=#d5e8d4;strokeColor=#82b366;fontSize=11;" edge="1" parent="1" source="SMmb6kWB0ZHN64gQysmY-10" target="SMmb6kWB0ZHN64gQysmY-4">
          <mxGeometry relative="1" as="geometry" />
        </mxCell>
        <mxCell id="SMmb6kWB0ZHN64gQysmY-23" value="thread_error()" style="edgeLabel;html=1;align=center;verticalAlign=middle;resizable=0;points=[];fontSize=13;" vertex="1" connectable="0" parent="SMmb6kWB0ZHN64gQysmY-21">
          <mxGeometry x="-0.1477" y="2" relative="1" as="geometry">
            <mxPoint x="1" as="offset" />
          </mxGeometry>
        </mxCell>
        <mxCell id="SMmb6kWB0ZHN64gQysmY-10" value="THREAD_STATE" style="rounded=1;whiteSpace=wrap;html=1;fontSize=13;fillColor=#d5e8d4;strokeColor=#82b366;" vertex="1" parent="1">
          <mxGeometry x="620" y="440" width="120" height="60" as="geometry" />
        </mxCell>
        <mxCell id="SMmb6kWB0ZHN64gQysmY-34" style="edgeStyle=orthogonalEdgeStyle;rounded=0;orthogonalLoop=1;jettySize=auto;html=1;exitX=0.5;exitY=0;exitDx=0;exitDy=0;entryX=0.25;entryY=1;entryDx=0;entryDy=0;fillColor=#d5e8d4;strokeColor=#82b366;" edge="1" parent="1" source="SMmb6kWB0ZHN64gQysmY-24" target="SMmb6kWB0ZHN64gQysmY-4">
          <mxGeometry relative="1" as="geometry">
            <Array as="points">
              <mxPoint x="180" y="520" />
              <mxPoint x="395" y="520" />
            </Array>
          </mxGeometry>
        </mxCell>
        <mxCell id="SMmb6kWB0ZHN64gQysmY-38" style="edgeStyle=orthogonalEdgeStyle;rounded=0;orthogonalLoop=1;jettySize=auto;html=1;exitX=0;exitY=0.5;exitDx=0;exitDy=0;entryX=0.25;entryY=0;entryDx=0;entryDy=0;fillColor=#d5e8d4;strokeColor=#82b366;" edge="1" parent="1" source="SMmb6kWB0ZHN64gQysmY-24" target="SMmb6kWB0ZHN64gQysmY-7">
          <mxGeometry relative="1" as="geometry">
            <Array as="points">
              <mxPoint x="60" y="590" />
              <mxPoint x="60" y="760" />
              <mxPoint x="395" y="760" />
            </Array>
          </mxGeometry>
        </mxCell>
        <mxCell id="SMmb6kWB0ZHN64gQysmY-24" value="LEG_STATE" style="rounded=1;whiteSpace=wrap;html=1;fontSize=13;fillColor=#d5e8d4;strokeColor=#82b366;" vertex="1" parent="1">
          <mxGeometry x="120" y="560" width="120" height="60" as="geometry" />
        </mxCell>
        <mxCell id="SMmb6kWB0ZHN64gQysmY-40" style="edgeStyle=orthogonalEdgeStyle;rounded=0;orthogonalLoop=1;jettySize=auto;html=1;exitX=0.75;exitY=1;exitDx=0;exitDy=0;entryX=0.5;entryY=0;entryDx=0;entryDy=0;fillColor=#d5e8d4;strokeColor=#82b366;" edge="1" parent="1" source="SMmb6kWB0ZHN64gQysmY-37" target="SMmb6kWB0ZHN64gQysmY-5">
          <mxGeometry relative="1" as="geometry">
            <Array as="points">
              <mxPoint x="210" y="540" />
              <mxPoint x="425" y="540" />
            </Array>
          </mxGeometry>
        </mxCell>
        <mxCell id="SMmb6kWB0ZHN64gQysmY-37" value="LEG_COMMAND" style="rounded=1;whiteSpace=wrap;html=1;fontSize=13;fillColor=#d5e8d4;strokeColor=#82b366;" vertex="1" parent="1">
          <mxGeometry x="120" y="440" width="120" height="60" as="geometry" />
        </mxCell>
        <mxCell id="SMmb6kWB0ZHN64gQysmY-48" style="edgeStyle=orthogonalEdgeStyle;rounded=0;orthogonalLoop=1;jettySize=auto;html=1;exitX=0.5;exitY=0;exitDx=0;exitDy=0;entryX=0;entryY=1;entryDx=0;entryDy=0;fillColor=#d5e8d4;strokeColor=#82b366;" edge="1" parent="1" source="SMmb6kWB0ZHN64gQysmY-42" target="SMmb6kWB0ZHN64gQysmY-4">
          <mxGeometry relative="1" as="geometry">
            <Array as="points">
              <mxPoint x="180" y="640" />
              <mxPoint x="365" y="640" />
            </Array>
          </mxGeometry>
        </mxCell>
        <mxCell id="SMmb6kWB0ZHN64gQysmY-42" value="ARM_STATE" style="rounded=1;whiteSpace=wrap;html=1;fontSize=13;fillColor=#d5e8d4;strokeColor=#82b366;" vertex="1" parent="1">
          <mxGeometry x="120" y="680" width="120" height="60" as="geometry" />
        </mxCell>
        <mxCell id="SMmb6kWB0ZHN64gQysmY-52" style="edgeStyle=orthogonalEdgeStyle;rounded=0;orthogonalLoop=1;jettySize=auto;html=1;exitX=1;exitY=0.5;exitDx=0;exitDy=0;entryX=0.5;entryY=1;entryDx=0;entryDy=0;fillColor=#d5e8d4;strokeColor=#82b366;" edge="1" parent="1" source="SMmb6kWB0ZHN64gQysmY-49" target="SMmb6kWB0ZHN64gQysmY-6">
          <mxGeometry relative="1" as="geometry">
            <Array as="points">
              <mxPoint x="240" y="780" />
              <mxPoint x="425" y="780" />
            </Array>
          </mxGeometry>
        </mxCell>
        <mxCell id="SMmb6kWB0ZHN64gQysmY-49" value="ARM_COMMAND" style="rounded=1;whiteSpace=wrap;html=1;fontSize=13;fillColor=#d5e8d4;strokeColor=#82b366;" vertex="1" parent="1">
          <mxGeometry x="120" y="800" width="120" height="60" as="geometry" />
        </mxCell>
        <mxCell id="SMmb6kWB0ZHN64gQysmY-55" style="edgeStyle=orthogonalEdgeStyle;rounded=0;orthogonalLoop=1;jettySize=auto;html=1;exitX=0.5;exitY=0;exitDx=0;exitDy=0;entryX=0.75;entryY=1;entryDx=0;entryDy=0;fillColor=#d5e8d4;strokeColor=#82b366;" edge="1" parent="1" source="SMmb6kWB0ZHN64gQysmY-53" target="SMmb6kWB0ZHN64gQysmY-4">
          <mxGeometry relative="1" as="geometry">
            <Array as="points">
              <mxPoint x="680" y="550" />
              <mxPoint x="455" y="550" />
            </Array>
          </mxGeometry>
        </mxCell>
        <mxCell id="SMmb6kWB0ZHN64gQysmY-53" value="EST_STATE" style="rounded=1;whiteSpace=wrap;html=1;fontSize=13;fillColor=#d5e8d4;strokeColor=#82b366;" vertex="1" parent="1">
          <mxGeometry x="620" y="800" width="120" height="60" as="geometry" />
        </mxCell>
        <mxCell id="SMmb6kWB0ZHN64gQysmY-57" style="edgeStyle=orthogonalEdgeStyle;rounded=0;orthogonalLoop=1;jettySize=auto;html=1;exitX=0.75;exitY=1;exitDx=0;exitDy=0;entryX=0;entryY=0;entryDx=0;entryDy=0;fillColor=#d5e8d4;strokeColor=#82b366;" edge="1" parent="1" source="SMmb6kWB0ZHN64gQysmY-56" target="SMmb6kWB0ZHN64gQysmY-7">
          <mxGeometry relative="1" as="geometry">
            <Array as="points">
              <mxPoint x="270" y="230" />
              <mxPoint x="270" y="660" />
              <mxPoint x="365" y="660" />
            </Array>
          </mxGeometry>
        </mxCell>
        <mxCell id="SMmb6kWB0ZHN64gQysmY-58" value="robot_state" style="edgeLabel;html=1;align=center;verticalAlign=middle;resizable=0;points=[];fontSize=13;" vertex="1" connectable="0" parent="SMmb6kWB0ZHN64gQysmY-57">
          <mxGeometry x="0.2928" y="-2" relative="1" as="geometry">
            <mxPoint x="-1" as="offset" />
          </mxGeometry>
        </mxCell>
        <mxCell id="SMmb6kWB0ZHN64gQysmY-59" style="edgeStyle=orthogonalEdgeStyle;rounded=0;orthogonalLoop=1;jettySize=auto;html=1;exitX=0.75;exitY=1;exitDx=0;exitDy=0;entryX=0.25;entryY=0;entryDx=0;entryDy=0;fillColor=#d5e8d4;strokeColor=#82b366;" edge="1" parent="1" source="SMmb6kWB0ZHN64gQysmY-56" target="SMmb6kWB0ZHN64gQysmY-4">
          <mxGeometry relative="1" as="geometry">
            <Array as="points">
              <mxPoint x="200" y="230" />
              <mxPoint x="270" y="230" />
              <mxPoint x="270" y="390" />
              <mxPoint x="395" y="390" />
            </Array>
          </mxGeometry>
        </mxCell>
        <mxCell id="SMmb6kWB0ZHN64gQysmY-56" value="PLANNER_CMD" style="rounded=1;whiteSpace=wrap;html=1;fontSize=13;fillColor=#d5e8d4;strokeColor=#82b366;" vertex="1" parent="1">
          <mxGeometry x="110" y="80" width="120" height="60" as="geometry" />
        </mxCell>
        <mxCell id="SMmb6kWB0ZHN64gQysmY-66" style="edgeStyle=orthogonalEdgeStyle;rounded=0;orthogonalLoop=1;jettySize=auto;html=1;exitX=0.75;exitY=1;exitDx=0;exitDy=0;entryX=0.5;entryY=0;entryDx=0;entryDy=0;fillColor=#d5e8d4;strokeColor=#82b366;" edge="1" parent="1" source="SMmb6kWB0ZHN64gQysmY-63" target="SMmb6kWB0ZHN64gQysmY-4">
          <mxGeometry relative="1" as="geometry" />
        </mxCell>
        <mxCell id="SMmb6kWB0ZHN64gQysmY-63" value="USER_CMD" style="rounded=1;whiteSpace=wrap;html=1;fontSize=13;fillColor=#d5e8d4;strokeColor=#82b366;" vertex="1" parent="1">
          <mxGeometry x="110" y="320" width="120" height="60" as="geometry" />
        </mxCell>
        <mxCell id="SMmb6kWB0ZHN64gQysmY-68" value="SHMEMSEG" style="text;html=1;align=center;verticalAlign=middle;whiteSpace=wrap;rounded=0;fontSize=19;fillColor=#d5e8d4;strokeColor=#82b366;" vertex="1" parent="1">
          <mxGeometry x="113.75" y="10" width="132.5" height="50" as="geometry" />
        </mxCell>
      </root>
    </mxGraphModel>
  </diagram>
</mxfile>
